<?xml version="1.0" encoding="utf-8"?>
<!-- Generator: Adobe Illustrator 21.1.0, SVG Export Plug-In . SVG Version: 6.00 Build 0)  -->
<svg version="1.1" xmlns="http://www.w3.org/2000/svg" xmlns:xlink="http://www.w3.org/1999/xlink" x="0px" y="0px"
	 viewBox="0 0 24 24" style="enable-background:new 0 0 24 24;" xml:space="preserve">
<style type="text/css">
	.st0{opacity:0;fill:#FFFFFF;}
	.st1{display:none;}
	.st2{display:inline;}
	.st3{fill:#D0994B;}
	.st4{fill:#E4E7E7;}
	.st5{fill:#F4B459;}
	.st6{fill:#DBDDDD;}
	.st7{fill:#CCD0D2;}
	.st8{fill:#E3B451;}
	.st9{fill:#D07C40;}
	.st10{fill:#DBDBDB;}
	.st11{fill:#E9E9E0;}
	.st12{fill:#D9D7CA;}
	.st13{fill:#95A5A5;}
	.st14{fill:#FFFFFF;}
	.st15{fill:#C8BDB8;}
	.st16{fill:#8697CB;}
	.st17{fill:#0096E6;}
	.st18{fill:#CC4B4C;}
	.st19{fill:#7D6599;}
	.st20{fill:#FF5364;}
	.st21{fill:#659C35;}
	.st22{fill:#F3D55B;}
	.st23{fill:#88C057;}
	.st24{fill:#677199;}
	.st25{fill:#545454;}
	.st26{fill:#EC6630;}
	.st27{fill:#EAB532;}
	.st28{font-family:'MyriadPro-Regular';}
	.st29{font-size:5.938px;}
	.st30{fill:#91CDA0;}
	.st31{font-size:6.286px;}
	.st32{fill:#255D7C;}
	.st33{fill:#8C8C8C;}
	.st34{fill:#35A06B;}
	.st35{font-size:6.0927px;}
	.st36{display:inline;fill:#35A06B;}
	.st37{fill:#AD870E;}
	.st38{font-size:5.1732px;}
	.st39{fill:#F4B5A8;}
	.st40{fill:#F9A18A;}
	.st41{fill:#ED8C85;}
	.st42{fill:#ED7D6E;}
	.st43{fill:#F2F2F2;}
	.st44{fill:#88C5FC;}
	.st45{fill:#70B1E0;}
	.st46{opacity:0.23;fill:#F2F2F2;enable-background:new    ;}
	.st47{fill:#E58005;}
	.st48{font-size:4.5587px;}
</style>
<g id="bg">
	<rect class="st0" width="24" height="24"/>
</g>
<g id="folder" class="st1">
	<g class="st2">
		<path class="st3" d="M20.3,3.4H9.9c0,0-1.4-2.2-2.2-2.2H3.9c-0.8,0-1.5,0.7-1.5,1.5v17.1c0,0.8,0.7,1.5,1.5,1.5h16.4
			c0.8,0,1.5-0.7,1.5-1.5V4.9C21.8,4.1,21.1,3.4,20.3,3.4z"/>
		<path class="st4" d="M2.4,5.7h19.3v6H2.4V5.7z"/>
		<path class="st5" d="M1.7,7.2h20.8c0.8,0,1.5,0.7,1.5,1.5l-1.5,12.6c0,0.8-0.7,1.5-1.5,1.5H3.2c-0.8,0-1.5-0.7-1.5-1.5L0.2,8.7
			C0.2,7.8,0.9,7.2,1.7,7.2z"/>
	</g>
</g>
<g id="foder_open" class="st1">
	<g class="st2">
		<path class="st3" d="M20.3,4.4H9.9c0,0-1.4-2.2-2.2-2.2H3.9c-0.8,0-1.5,0.7-1.5,1.5v17.1c0,0.8,0.7,1.5,1.5,1.5h16.4
			c0.8,0,1.5-0.7,1.5-1.5V5.9C21.8,5.1,21.1,4.4,20.3,4.4z"/>
		<path class="st4" d="M2.4,6.7h19.3v6H2.4V6.7z"/>
		<g>
			<path class="st6" d="M6.7,0.6h14.9c0.4,0,0.7,0.3,0.7,0.7V14c0,0.4-0.3,0.7-0.7,0.7H6.7c-0.4,0-0.7-0.3-0.7-0.7V1.3
				C5.9,0.9,6.2,0.6,6.7,0.6z"/>
			<path class="st7" d="M8.9,4.3h10.4C19.7,4.3,20,4,20,3.6s-0.3-0.7-0.7-0.7H8.9c-0.4,0-0.7,0.3-0.7,0.7S8.5,4.3,8.9,4.3z
				 M19.3,5.8H8.9c-0.4,0-0.7,0.3-0.7,0.7c0,0.4,0.3,0.7,0.7,0.7h10.4C19.7,7.3,20,7,20,6.5C20,6.1,19.7,5.8,19.3,5.8z M19.3,8.8
				H8.9c-0.4,0-0.7,0.3-0.7,0.7c0,0.4,0.3,0.7,0.7,0.7h10.4c0.4,0,0.7-0.3,0.7-0.7C20,9.1,19.7,8.8,19.3,8.8z"/>
		</g>
		<g>
			<path class="st4" d="M2.9,3.5h14.9c0.4,0,0.7,0.3,0.7,0.7v12.6c0,0.4-0.3,0.7-0.7,0.7H2.9c-0.4,0-0.7-0.3-0.7-0.7V4.2
				C2.2,3.8,2.5,3.5,2.9,3.5z"/>
			<path class="st7" d="M5.1,7.2h10.4c0.4,0,0.7-0.3,0.7-0.7c0-0.4-0.3-0.7-0.7-0.7H5.1C4.7,5.7,4.4,6,4.4,6.5
				C4.4,6.9,4.7,7.2,5.1,7.2z M15.6,8.7H5.1C4.7,8.7,4.4,9,4.4,9.4s0.3,0.7,0.7,0.7h10.4c0.4,0,0.7-0.3,0.7-0.7
				C16.3,9,16,8.7,15.6,8.7z M15.6,11.7H5.1c-0.4,0-0.7,0.3-0.7,0.7c0,0.4,0.3,0.7,0.7,0.7h10.4c0.4,0,0.7-0.3,0.7-0.7
				C16.3,12,16,11.7,15.6,11.7z"/>
		</g>
		<path class="st5" d="M1.7,8.2h20.8c0.8,0,1.5,0.7,1.5,1.5l-1.5,12.6c0,0.8-0.7,1.5-1.5,1.5H3.2c-0.8,0-1.5-0.7-1.5-1.5L0.2,9.7
			C0.2,8.8,0.9,8.2,1.7,8.2z"/>
	</g>
</g>
<g id="archive" class="st1">
	<g class="st2">
		<path class="st8" d="M4.7,9.1h14.9l4.5,4.5H0.2L4.7,9.1z"/>
		<path class="st9" d="M5.4,10.6h13.4l3.7,3.7c0,0-0.3,3.7-0.8,3.7H2.4c-0.4,0-0.7-3.7-0.7-3.7L5.4,10.6z"/>
		<path class="st10" d="M5.7,1.4h14.9c0.4,0,0.7,0.3,0.7,0.7v12.6c0,0.4-0.3,0.7-0.7,0.7H5.7c-0.4,0-0.7-0.3-0.7-0.7V2.2
			C4.9,1.8,5.2,1.4,5.7,1.4z"/>
		<path class="st7" d="M7.9,5.1h10.4c0.4,0,0.7-0.3,0.7-0.7s-0.3-0.7-0.7-0.7H7.9C7.5,3.7,7.1,4,7.1,4.4S7.5,5.1,7.9,5.1z M18.3,6.6
			H7.9C7.5,6.6,7.1,7,7.1,7.4c0,0.4,0.3,0.7,0.7,0.7h10.4c0.4,0,0.7-0.3,0.7-0.7S18.7,6.6,18.3,6.6z M18.3,9.6H7.9
			c-0.4,0-0.7,0.3-0.7,0.7c0,0.4,0.3,0.7,0.7,0.7h10.4c0.4,0,0.7-0.3,0.7-0.7S18.7,9.6,18.3,9.6z"/>
		<path class="st4" d="M2.8,4.3h14.9c0.4,0,0.7,0.3,0.7,0.7v12.6c0,0.4-0.3,0.7-0.7,0.7H2.8c-0.4,0-0.7-0.3-0.7-0.7V5.1
			C2.1,4.6,2.4,4.3,2.8,4.3z"/>
		<path class="st7" d="M5.1,8h10.4c0.4,0,0.7-0.3,0.7-0.7s-0.3-0.7-0.7-0.7H5.1c-0.4,0-0.7,0.3-0.7,0.7S4.7,8,5.1,8z M15.5,9.5H5.1
			c-0.4,0-0.7,0.3-0.7,0.7S4.7,11,5.1,11h10.4c0.4,0,0.7-0.3,0.7-0.7C16.2,9.9,15.9,9.5,15.5,9.5z M15.5,12.5H5.1
			c-0.4,0-0.7,0.3-0.7,0.7c0,0.4,0.3,0.7,0.7,0.7h10.4c0.4,0,0.7-0.3,0.7-0.7C16.2,12.8,15.9,12.5,15.5,12.5z"/>
		<path class="st5" d="M16.6,13.6v1.5c0,0.8-0.7,1.5-1.5,1.5h-6c-0.8,0-1.5-0.7-1.5-1.5v-1.5H0.2v8.9c0,0.8,0.7,1.5,1.5,1.5h20.8
			c0.8,0,1.5-0.7,1.5-1.5v-8.9H16.6z"/>
	</g>
</g>
<g id="txt_1_" class="st1">
	<g class="st2">
		<path class="st11" d="M16.2,0.6H4.3C4,0.6,3.7,0.8,3.7,1.3V23c0,0.1,0.3,0.4,0.6,0.4h16.4c0.3,0,0.6-0.3,0.6-0.4V5.9
			c0-0.3,0-0.4-0.1-0.4l-4.8-4.8C16.3,0.6,16.2,0.6,16.2,0.6z"/>
		<polygon class="st12" points="16.4,0.6 16.4,5.5 21.2,5.5 		"/>
		<path class="st13" d="M20.7,23.4H4.3c-0.3,0-0.6-0.3-0.6-0.6v-6.4h17.6v6.4C21.3,23.2,21,23.4,20.7,23.4z"/>
		<g>
			<path class="st14" d="M10,18.1v0.5H8.7v3.7H8.1v-3.7H6.8v-0.5H10z"/>
			<path class="st14" d="M12.7,20.2l1,2h-0.8l-0.7-1.6h-0.1l-0.7,1.6h-0.8l1-2l-1.1-2.1h0.8l0.7,1.7h0.1l0.8-1.7h0.8L12.7,20.2z"/>
			<path class="st14" d="M17.6,18.1v0.5h-1.2v3.7h-0.7v-3.7h-1.2v-0.5H17.6z"/>
		</g>
		<path class="st15" d="M8.6,5.9H6.1c-0.2,0-0.4-0.2-0.4-0.4s0.2-0.4,0.4-0.4h2.5C8.8,5.1,9,5.2,9,5.5S8.8,5.9,8.6,5.9z"/>
		<path class="st15" d="M9.8,7.9H6.1c-0.2,0-0.4-0.2-0.4-0.4c0-0.2,0.2-0.4,0.4-0.4h3.7c0.2,0,0.4,0.2,0.4,0.4
			C10.2,7.7,10,7.9,9.8,7.9z"/>
		<path class="st15" d="M11.5,7.9c-0.1,0-0.2,0-0.3-0.1C11.1,7.7,11,7.6,11,7.5c0-0.1,0-0.2,0.1-0.3c0.1-0.2,0.4-0.2,0.6,0
			c0.1,0.1,0.1,0.2,0.1,0.3c0,0.1,0,0.2-0.1,0.3C11.7,7.9,11.6,7.9,11.5,7.9z"/>
		<path class="st15" d="M16.4,7.9h-3.3c-0.2,0-0.4-0.2-0.4-0.4c0-0.2,0.2-0.4,0.4-0.4h3.3c0.2,0,0.4,0.2,0.4,0.4
			C16.8,7.7,16.6,7.9,16.4,7.9z"/>
		<path class="st15" d="M6.1,14c-0.1,0-0.2,0-0.3-0.1c-0.1-0.1-0.1-0.2-0.1-0.3c0-0.1,0-0.2,0.1-0.3c0.2-0.2,0.4-0.2,0.6,0
			c0.1,0.1,0.1,0.2,0.1,0.3s0,0.2-0.1,0.3C6.4,14,6.2,14,6.1,14z"/>
		<path class="st15" d="M11,14H7.8c-0.2,0-0.4-0.2-0.4-0.4s0.2-0.4,0.4-0.4H11c0.2,0,0.4,0.2,0.4,0.4C11.5,13.9,11.3,14,11,14z"/>
		<path class="st15" d="M18.8,7.9H18c-0.2,0-0.4-0.2-0.4-0.4c0-0.2,0.2-0.4,0.4-0.4h0.8c0.2,0,0.4,0.2,0.4,0.4
			C19.2,7.7,19,7.9,18.8,7.9z"/>
		<path class="st15" d="M15.1,10h-9c-0.2,0-0.4-0.2-0.4-0.4c0-0.2,0.2-0.4,0.4-0.4h9c0.2,0,0.4,0.2,0.4,0.4
			C15.5,9.8,15.4,10,15.1,10z"/>
		<path class="st15" d="M18.8,10h-2.5C16.1,10,16,9.8,16,9.5c0-0.2,0.2-0.4,0.4-0.4h2.5c0.2,0,0.4,0.2,0.4,0.4
			C19.2,9.8,19,10,18.8,10z"/>
		<path class="st15" d="M7.8,12H6.1c-0.2,0-0.4-0.2-0.4-0.4c0-0.2,0.2-0.4,0.4-0.4h1.6c0.2,0,0.4,0.2,0.4,0.4C8.2,11.8,8,12,7.8,12z
			"/>
		<path class="st15" d="M13.5,12H9.4C9.2,12,9,11.8,9,11.6c0-0.2,0.2-0.4,0.4-0.4h4.1c0.2,0,0.4,0.2,0.4,0.4
			C13.9,11.8,13.7,12,13.5,12z"/>
		<path class="st15" d="M18.8,12h-3.7c-0.2,0-0.4-0.2-0.4-0.4c0-0.2,0.2-0.4,0.4-0.4h3.7c0.2,0,0.4,0.2,0.4,0.4
			C19.2,11.8,19,12,18.8,12z"/>
	</g>
</g>
<g id="doc" class="st1">
	<g class="st2">
		<path class="st11" d="M16.2,0.6H4.3C4,0.6,3.7,0.8,3.7,1.3V23c0,0.1,0.3,0.4,0.6,0.4h16.4c0.3,0,0.6-0.3,0.6-0.4V5.9
			c0-0.3,0-0.4-0.1-0.4l-4.8-4.8C16.3,0.6,16.2,0.6,16.2,0.6z"/>
		<polygon class="st12" points="16.4,0.6 16.4,5.5 21.2,5.5 		"/>
		<path class="st16" d="M8.6,5.9H6.1c-0.2,0-0.4-0.2-0.4-0.4s0.2-0.4,0.4-0.4h2.5C8.8,5.1,9,5.2,9,5.5S8.8,5.9,8.6,5.9z"/>
		<path class="st16" d="M9.8,7.9H6.1c-0.2,0-0.4-0.2-0.4-0.4c0-0.2,0.2-0.4,0.4-0.4h3.7c0.2,0,0.4,0.2,0.4,0.4
			C10.2,7.7,10,7.9,9.8,7.9z"/>
		<path class="st16" d="M11.5,7.9c-0.1,0-0.2,0-0.3-0.1C11.1,7.7,11,7.6,11,7.5c0-0.1,0-0.2,0.1-0.3c0.2-0.2,0.4-0.2,0.6,0
			c0.1,0.1,0.1,0.2,0.1,0.3c0,0.1,0,0.2-0.1,0.3C11.7,7.9,11.6,7.9,11.5,7.9z"/>
		<path class="st16" d="M16.4,7.9h-3.3c-0.2,0-0.4-0.2-0.4-0.4c0-0.2,0.2-0.4,0.4-0.4h3.3c0.2,0,0.4,0.2,0.4,0.4
			C16.8,7.7,16.6,7.9,16.4,7.9z"/>
		<path class="st16" d="M6.1,14c-0.1,0-0.2,0-0.3-0.1c-0.1-0.1-0.1-0.2-0.1-0.3c0-0.1,0-0.2,0.1-0.3c0.2-0.2,0.4-0.2,0.6,0
			c0.1,0.1,0.1,0.2,0.1,0.3c0,0.1,0,0.2-0.1,0.3C6.4,14,6.2,14,6.1,14z"/>
		<path class="st16" d="M11,14H7.8c-0.2,0-0.4-0.2-0.4-0.4s0.2-0.4,0.4-0.4H11c0.2,0,0.4,0.2,0.4,0.4C11.5,13.9,11.3,14,11,14z"/>
		<path class="st16" d="M18.8,7.9H18c-0.2,0-0.4-0.2-0.4-0.4c0-0.2,0.2-0.4,0.4-0.4h0.8c0.2,0,0.4,0.2,0.4,0.4
			C19.2,7.7,19,7.9,18.8,7.9z"/>
		<path class="st16" d="M15.1,10h-9c-0.2,0-0.4-0.2-0.4-0.4c0-0.2,0.2-0.4,0.4-0.4h9c0.2,0,0.4,0.2,0.4,0.4
			C15.5,9.8,15.4,10,15.1,10z"/>
		<path class="st16" d="M18.8,10h-2.5C16.1,10,16,9.8,16,9.5c0-0.2,0.2-0.4,0.4-0.4h2.5c0.2,0,0.4,0.2,0.4,0.4
			C19.2,9.8,19,10,18.8,10z"/>
		<path class="st16" d="M7.8,12H6.1c-0.2,0-0.4-0.2-0.4-0.4c0-0.2,0.2-0.4,0.4-0.4h1.6c0.2,0,0.4,0.2,0.4,0.4C8.2,11.8,8,12,7.8,12z
			"/>
		<path class="st16" d="M13.5,12H9.4C9.2,12,9,11.8,9,11.6c0-0.2,0.2-0.4,0.4-0.4h4.1c0.2,0,0.4,0.2,0.4,0.4
			C13.9,11.8,13.7,12,13.5,12z"/>
		<path class="st16" d="M18.8,12h-3.7c-0.2,0-0.4-0.2-0.4-0.4c0-0.2,0.2-0.4,0.4-0.4h3.7c0.2,0,0.4,0.2,0.4,0.4
			C19.2,11.8,19,12,18.8,12z"/>
		<path class="st17" d="M20.7,23.4H4.3c-0.3,0-0.6-0.3-0.6-0.6v-6.4h17.6v6.4C21.3,23.2,21,23.4,20.7,23.4z"/>
		<g>
			<path class="st14" d="M10.6,20c0,0.3,0,0.6-0.1,0.9c-0.1,0.2-0.2,0.4-0.3,0.6c-0.1,0.2-0.2,0.3-0.4,0.4c-0.1,0.1-0.3,0.2-0.4,0.2
				c-0.1,0-0.2,0.1-0.4,0.1c-0.1,0-0.2,0-0.2,0H7.3v-4.1h1.2c0.3,0,0.7,0.1,0.9,0.2c0.3,0.1,0.5,0.3,0.7,0.4
				c0.2,0.2,0.3,0.4,0.4,0.6C10.6,19.6,10.6,19.8,10.6,20z M8.6,21.7c0.5,0,0.8-0.1,1-0.4C9.8,21,9.9,20.6,9.9,20
				c0-0.2,0-0.3-0.1-0.5c0-0.2-0.1-0.3-0.2-0.5s-0.3-0.2-0.5-0.3c-0.2-0.1-0.5-0.1-0.8-0.1H8v3.1C8,21.7,8.6,21.7,8.6,21.7z"/>
			<path class="st14" d="M14.7,20.1c0,0.3,0,0.7-0.1,0.9c-0.1,0.3-0.2,0.5-0.4,0.7c-0.2,0.2-0.3,0.3-0.5,0.4
				c-0.2,0.1-0.4,0.1-0.7,0.1c-0.2,0-0.5,0-0.7-0.1c-0.2-0.1-0.4-0.2-0.5-0.4c-0.2-0.2-0.3-0.4-0.4-0.7c-0.1-0.3-0.1-0.6-0.1-0.9
				s0-0.7,0.1-0.9c0.1-0.3,0.2-0.5,0.4-0.7c0.2-0.2,0.3-0.3,0.5-0.4c0.2-0.1,0.4-0.1,0.7-0.1c0.2,0,0.5,0,0.7,0.1
				c0.2,0.1,0.4,0.2,0.5,0.4c0.2,0.2,0.3,0.4,0.4,0.7C14.7,19.5,14.7,19.8,14.7,20.1z M13,21.7c0.1,0,0.3,0,0.4-0.1
				c0.1-0.1,0.2-0.1,0.3-0.3c0.1-0.1,0.2-0.3,0.2-0.5c0.1-0.2,0.1-0.4,0.1-0.7c0-0.3,0-0.5-0.1-0.7c-0.1-0.2-0.1-0.4-0.2-0.5
				c-0.1-0.1-0.2-0.2-0.3-0.3c-0.1-0.1-0.2-0.1-0.4-0.1c-0.1,0-0.3,0-0.4,0.1c-0.1,0.1-0.2,0.1-0.3,0.3c-0.1,0.1-0.2,0.3-0.2,0.5
				C12,19.6,12,19.9,12,20.1c0,0.3,0,0.5,0.1,0.7c0.1,0.2,0.1,0.4,0.2,0.5c0.1,0.1,0.2,0.2,0.3,0.3C12.7,21.7,12.8,21.7,13,21.7z"/>
			<path class="st14" d="M18.4,21.8c-0.2,0.1-0.3,0.3-0.5,0.3c-0.2,0.1-0.4,0.1-0.6,0.1c-0.2,0-0.5,0-0.7-0.1s-0.4-0.2-0.5-0.4
				c-0.2-0.2-0.3-0.4-0.4-0.7c-0.1-0.3-0.1-0.6-0.1-0.9s0-0.7,0.1-0.9c0.1-0.3,0.2-0.5,0.4-0.7c0.2-0.2,0.3-0.3,0.5-0.4
				c0.2-0.1,0.4-0.1,0.7-0.1c0.2,0,0.4,0,0.6,0.1c0.2,0.1,0.4,0.2,0.5,0.3L18,18.9c-0.1-0.1-0.2-0.2-0.3-0.2c-0.1,0-0.2-0.1-0.4-0.1
				c-0.1,0-0.3,0-0.4,0.1c-0.1,0.1-0.2,0.1-0.3,0.3c-0.1,0.1-0.2,0.3-0.2,0.5c-0.1,0.2-0.1,0.4-0.1,0.7c0,0.3,0,0.5,0.1,0.7
				c0.1,0.2,0.1,0.4,0.2,0.5c0.1,0.1,0.2,0.2,0.3,0.3c0.1,0.1,0.2,0.1,0.4,0.1c0.1,0,0.3,0,0.4-0.1c0.1,0,0.2-0.1,0.3-0.2L18.4,21.8
				z"/>
		</g>
	</g>
</g>
<g id="pdf" class="st1">
	<g class="st2">
		<path class="st11" d="M16.2,0.6H4.3C4,0.6,3.7,0.8,3.7,1.3V23c0,0.1,0.3,0.4,0.6,0.4h16.4c0.3,0,0.6-0.3,0.6-0.4V5.9
			c0-0.3,0-0.4-0.1-0.4l-4.8-4.8C16.3,0.6,16.2,0.6,16.2,0.6z"/>
		<polygon class="st12" points="16.4,0.6 16.4,5.5 21.2,5.5 		"/>
		<path class="st18" d="M9,14.2L9,14.2c-0.1,0-0.3,0-0.4-0.1c-0.4-0.3-0.5-0.7-0.5-0.9c0.1-0.7,0.9-1.4,2.4-2.1
			c0.6-1.3,1.2-3,1.5-4.4c-0.4-0.9-0.8-2-0.5-2.7c0.1-0.2,0.2-0.4,0.5-0.5c0.1,0,0.3-0.1,0.4-0.1c0.2,0,0.4,0.3,0.5,0.4
			c0.1,0.2,0.4,0.5-0.2,2.8c0.6,1.1,1.3,2.3,2.1,3.1c0.5-0.1,1-0.1,1.4-0.1c0.6,0,1,0.1,1.2,0.5c0.1,0.3,0.1,0.6-0.2,0.9
			c-0.2,0.3-0.5,0.5-0.9,0.5c-0.5,0-1.1-0.3-1.7-0.9c-1.2,0.2-2.5,0.7-3.6,1.2c-0.3,0.7-0.7,1.3-1,1.7C9.7,13.9,9.4,14.2,9,14.2z
			 M10.1,12.1c-0.9,0.5-1.2,0.9-1.3,1.1c0,0,0,0.1,0.2,0.3C9.1,13.5,9.4,13.3,10.1,12.1z M15.7,10.3c0.3,0.3,0.4,0.4,0.6,0.4
			c0.1,0,0.4,0,0.5-0.2c0.1-0.1,0.1-0.1,0.1-0.2c-0.1,0-0.1-0.1-0.5-0.1C16.2,10.2,15.9,10.2,15.7,10.3z M12.6,7.6
			c-0.3,1-0.7,2.1-1.1,3.1c0.9-0.3,1.8-0.6,2.7-0.8C13.6,9.2,13.1,8.4,12.6,7.6z M12.4,4.1c0,0-0.5,0.7,0,1.3
			C12.8,4.6,12.4,4.1,12.4,4.1z"/>
		<path class="st18" d="M20.7,23.4H4.3c-0.3,0-0.6-0.3-0.6-0.6v-6.4h17.6v6.4C21.3,23.2,21,23.4,20.7,23.4z"/>
		<g>
			<path class="st14" d="M8.1,22.2H7.5v-4.1h1.2c0.2,0,0.3,0,0.5,0.1c0.2,0.1,0.3,0.1,0.5,0.3c0.1,0.1,0.2,0.2,0.3,0.4
				c0.1,0.2,0.1,0.3,0.1,0.5c0,0.2,0,0.4-0.1,0.6c-0.1,0.2-0.2,0.3-0.3,0.4c-0.1,0.1-0.3,0.2-0.5,0.3c-0.2,0.1-0.4,0.1-0.6,0.1H8.1
				L8.1,22.2L8.1,22.2z M8.1,18.6v1.6h0.6c0.1,0,0.2,0,0.2,0c0.1,0,0.2-0.1,0.2-0.1c0.1-0.1,0.1-0.2,0.2-0.3c0-0.1,0.1-0.3,0.1-0.4
				c0-0.1,0-0.1,0-0.2c0-0.1-0.1-0.2-0.1-0.3c-0.1-0.1-0.1-0.1-0.2-0.2c-0.1-0.1-0.2-0.1-0.4-0.1L8.1,18.6L8.1,18.6z"/>
			<path class="st14" d="M14.2,20c0,0.3,0,0.6-0.1,0.9c-0.1,0.2-0.2,0.4-0.3,0.6c-0.1,0.2-0.2,0.3-0.4,0.4c-0.1,0.1-0.3,0.2-0.4,0.2
				c-0.1,0-0.2,0.1-0.4,0.1c-0.1,0-0.2,0-0.2,0h-1.6v-4.1h1.2c0.3,0,0.7,0.1,0.9,0.2c0.3,0.1,0.5,0.3,0.7,0.4s0.3,0.4,0.4,0.6
				C14.2,19.6,14.2,19.8,14.2,20z M12.2,21.7c0.5,0,0.8-0.1,1-0.4c0.2-0.3,0.3-0.7,0.3-1.3c0-0.2,0-0.3-0.1-0.5
				c0-0.2-0.1-0.3-0.2-0.5s-0.3-0.2-0.5-0.3c-0.2-0.1-0.5-0.1-0.8-0.1h-0.4v3.1C11.5,21.7,12.2,21.7,12.2,21.7z"/>
			<path class="st14" d="M15.9,18.6v1.3h1.7v0.5h-1.7v1.9h-0.7v-4.1h2.6v0.5H15.9z"/>
		</g>
	</g>
</g>
<g id="mp4_1_" class="st1">
	<g class="st2">
		<path class="st11" d="M16.2,1.1H4.3C4,1.1,3.7,1.4,3.7,1.9v21.7C3.7,23.7,4,24,4.3,24h16.4c0.3,0,0.6-0.3,0.6-0.4V6.4
			c0-0.3,0-0.4-0.1-0.4l-4.8-4.8C16.3,1.1,16.2,1.1,16.2,1.1z"/>
		<polygon class="st12" points="16.4,1.2 16.4,6 21.2,6 		"/>
		<path class="st19" d="M20.7,24H4.3c-0.3,0-0.6-0.3-0.6-0.6v-6.4h17.6v6.4C21.3,23.7,21,24,20.7,24z"/>
		<path class="st15" d="M15.6,7.2c-0.2-0.3-0.5-0.6-0.9-1c-1.6-1.3-1.9-2.6-2-2.8V3.2c0-0.2-0.2-0.4-0.4-0.4c-0.2,0-0.4,0.2-0.4,0.4
			v0.4V7v3.7h-1.5c-1.6,0-2.6,0.8-2.6,2.1c0,1.4,0.9,2.3,2.3,2.3c1.4,0,2.6-1.2,2.6-2.6V7.8l0.1,0.1c0.1,0.1,0.4,0.3,0.6,0.5
			c0.9,0.7,2.5,1.9,2.1,3.2c0,0,0,0.1,0,0.1c0,0.2,0.1,0.3,0.3,0.4c0,0,0.1,0,0.1,0c0.2,0,0.3-0.1,0.4-0.3C17,9.7,16.2,8,15.6,7.2z
			 M11.9,12.5c0,1-0.8,1.8-1.8,1.8c-1,0-1.5-0.6-1.5-1.5c0-1.1,1-1.3,1.8-1.3h1.5V12.5z M13.9,7.8c-0.2-0.2-0.4-0.3-0.6-0.4
			l-0.7-0.5V5.4c0.3,0.5,0.8,1,1.5,1.5c0.4,0.3,0.6,0.5,0.8,0.8c0.3,0.4,0.6,1,0.7,1.6C15.1,8.7,14.4,8.1,13.9,7.8z"/>
		<g>
			<path class="st14" d="M10.2,18.7h0.7v4.1h-0.7v-2.8l-0.9,2.3H8.7l-0.9-2.3v2.8H7.1v-4.1h0.7L9,21.5L10.2,18.7z"/>
			<path class="st14" d="M12.6,22.8h-0.7v-4.1h1.2c0.2,0,0.3,0,0.5,0.1c0.2,0.1,0.3,0.1,0.5,0.3s0.2,0.2,0.3,0.4s0.1,0.3,0.1,0.5
				c0,0.2,0,0.4-0.1,0.6c-0.1,0.2-0.2,0.3-0.3,0.4c-0.1,0.1-0.3,0.2-0.5,0.3c-0.2,0.1-0.4,0.1-0.6,0.1h-0.5L12.6,22.8L12.6,22.8z
				 M12.6,19.2v1.6h0.6c0.1,0,0.2,0,0.2,0s0.2-0.1,0.2-0.1c0.1-0.1,0.1-0.2,0.2-0.3s0.1-0.3,0.1-0.4c0-0.1,0-0.1,0-0.2
				c0-0.1-0.1-0.2-0.1-0.3c-0.1-0.1-0.1-0.1-0.2-0.2s-0.2-0.1-0.4-0.1L12.6,19.2L12.6,19.2z"/>
			<path class="st14" d="M16.8,20.6c0.1,0,0.2,0,0.3,0.1c0.1,0,0.2,0.1,0.3,0.2c0.1,0.1,0.1,0.2,0.2,0.3c0.1,0.1,0.1,0.3,0.1,0.4
				c0,0.2,0,0.3-0.1,0.5c-0.1,0.1-0.1,0.2-0.2,0.3c-0.1,0.1-0.2,0.2-0.3,0.2c-0.1,0.1-0.2,0.1-0.3,0.1s-0.2,0-0.3,0.1
				c-0.1,0-0.1,0-0.2,0c-0.3,0-0.6,0-0.7-0.1s-0.3-0.1-0.4-0.1l0.2-0.5c0,0,0.1,0,0.1,0.1c0,0,0.1,0,0.1,0.1s0.1,0,0.2,0.1
				c0.1,0,0.2,0,0.4,0c0.3,0,0.4-0.1,0.6-0.2s0.2-0.3,0.2-0.5c0-0.2-0.1-0.4-0.2-0.5c-0.1-0.1-0.3-0.2-0.5-0.2h-0.6h0l0-0.5h0.4
				c0.1,0,0.2,0,0.2,0c0.1,0,0.2,0,0.2-0.1c0.1,0,0.1-0.1,0.2-0.2c0-0.1,0.1-0.2,0.1-0.4c0-0.1,0-0.1,0-0.2c0-0.1,0-0.1-0.1-0.2
				s-0.1-0.1-0.2-0.2c-0.1,0-0.2-0.1-0.4-0.1s-0.3,0-0.4,0c-0.1,0-0.2,0.1-0.2,0.1l-0.2-0.5c0.1,0,0.2-0.1,0.3-0.1
				c0.1,0,0.3,0,0.6,0c0.2,0,0.3,0,0.5,0.1s0.3,0.1,0.4,0.2c0.1,0.1,0.2,0.2,0.3,0.4s0.1,0.3,0.1,0.5c0,0.1,0,0.2-0.1,0.3
				s-0.1,0.2-0.2,0.2c-0.1,0.1-0.1,0.1-0.2,0.2S16.9,20.6,16.8,20.6z"/>
		</g>
	</g>
	<g class="st2">
		<path class="st11" d="M16.2,0.6H4.3C4,0.6,3.7,0.8,3.7,1.3V23c0,0.1,0.3,0.4,0.6,0.4h16.4c0.3,0,0.6-0.3,0.6-0.4V5.9
			c0-0.3,0-0.4-0.1-0.4l-4.8-4.8C16.3,0.6,16.2,0.6,16.2,0.6z"/>
		<path class="st20" d="M20.7,23.4H4.3c-0.3,0-0.6-0.3-0.6-0.6v-6.4h17.6v6.4C21.3,23.2,21,23.4,20.7,23.4z"/>
		<g>
			<path class="st14" d="M10.2,18.1h0.7v4.1h-0.7v-2.8l-0.9,2.3H8.7l-0.9-2.3v2.8H7.1v-4.1h0.7L9,20.9L10.2,18.1z"/>
			<path class="st14" d="M12.6,22.2h-0.7v-4.1h1.2c0.2,0,0.3,0,0.5,0.1c0.2,0.1,0.3,0.1,0.5,0.3c0.1,0.1,0.2,0.2,0.3,0.4
				c0.1,0.2,0.1,0.3,0.1,0.5c0,0.2,0,0.4-0.1,0.6c-0.1,0.2-0.2,0.3-0.3,0.4c-0.1,0.1-0.3,0.2-0.5,0.3c-0.2,0.1-0.4,0.1-0.6,0.1h-0.5
				L12.6,22.2L12.6,22.2z M12.6,18.6v1.6h0.6c0.1,0,0.2,0,0.2,0c0.1,0,0.2-0.1,0.2-0.1c0.1-0.1,0.1-0.2,0.2-0.3s0.1-0.3,0.1-0.4
				c0-0.1,0-0.1,0-0.2c0-0.1-0.1-0.2-0.1-0.3c-0.1-0.1-0.1-0.1-0.2-0.2c-0.1-0.1-0.2-0.1-0.4-0.1L12.6,18.6L12.6,18.6z"/>
			<path class="st14" d="M16.8,21.3H15v-0.5l1.8-2.6h0.7v2.6h0.4v0.5h-0.4v1h-0.7V21.3z M16.8,20.7v-1.8l-1.2,1.8H16.8z"/>
		</g>
		<path class="st15" d="M11,12c-0.1,0-0.1,0-0.2-0.1c-0.1-0.1-0.2-0.2-0.2-0.4V5.9c0-0.1,0.1-0.3,0.2-0.4c0.1-0.1,0.3-0.1,0.4,0
			l4.5,2.9C15.9,8.5,16,8.6,16,8.7S15.9,9,15.8,9.1l-4.5,2.9C11.2,12,11.1,12,11,12z M11.5,6.6v4.2l3.3-2.1L11.5,6.6z"/>
		<path class="st15" d="M12.7,14.9c-3.4,0-6.1-2.8-6.1-6.1s2.8-6.1,6.1-6.1s6.1,2.8,6.1,6.1S16.1,14.9,12.7,14.9z M12.7,3.4
			c-2.9,0-5.3,2.4-5.3,5.3S9.8,14,12.7,14S18,11.7,18,8.7S15.6,3.4,12.7,3.4z"/>
		<polygon class="st12" points="16.4,0.6 16.4,5.5 21.2,5.5 		"/>
	</g>
</g>
<g id="png" class="st1">
	<g class="st2">
		<path class="st11" d="M16.2,0.6H4.3C4,0.6,3.7,0.8,3.7,1.3V23c0,0.1,0.3,0.4,0.6,0.4h16.4c0.3,0,0.6-0.3,0.6-0.4V5.9
			c0-0.3,0-0.4-0.1-0.4l-4.8-4.8C16.3,0.6,16.2,0.6,16.2,0.6z"/>
		<path class="st21" d="M20.7,23.4H4.3c-0.3,0-0.6-0.3-0.6-0.6v-6.4h17.6v6.4C21.3,23.2,21,23.4,20.7,23.4z"/>
		<polygon class="st12" points="16.4,0.6 16.4,5.5 21.2,5.5 		"/>
		<g>
			<path class="st14" d="M8.1,22.2H7.5v-4.1h1.2c0.2,0,0.3,0,0.5,0.1c0.2,0.1,0.3,0.1,0.5,0.3c0.1,0.1,0.2,0.2,0.3,0.4
				c0.1,0.2,0.1,0.3,0.1,0.5c0,0.2,0,0.4-0.1,0.6c-0.1,0.2-0.2,0.3-0.3,0.4c-0.1,0.1-0.3,0.2-0.5,0.3c-0.2,0.1-0.4,0.1-0.6,0.1H8.1
				L8.1,22.2L8.1,22.2z M8.1,18.6v1.6h0.6c0.1,0,0.2,0,0.2,0c0.1,0,0.2-0.1,0.2-0.1c0.1-0.1,0.1-0.2,0.2-0.3c0-0.1,0.1-0.3,0.1-0.4
				c0-0.1,0-0.1,0-0.2c0-0.1-0.1-0.2-0.1-0.3c-0.1-0.1-0.1-0.1-0.2-0.2c-0.1-0.1-0.2-0.1-0.4-0.1L8.1,18.6L8.1,18.6z"/>
			<path class="st14" d="M13.8,18.1v4.1h-0.7l-1.6-2.8v2.8h-0.7v-4.1h0.7l1.6,2.8v-2.8H13.8z"/>
			<path class="st14" d="M17.9,20.1v1.6c-0.1,0.1-0.2,0.2-0.3,0.3c-0.1,0.1-0.2,0.1-0.3,0.2c-0.1,0-0.2,0.1-0.4,0.1
				c-0.1,0-0.2,0-0.4,0c-0.2,0-0.5,0-0.7-0.1c-0.2-0.1-0.4-0.2-0.5-0.4c-0.2-0.2-0.3-0.4-0.4-0.7c-0.1-0.3-0.1-0.6-0.1-0.9
				s0-0.7,0.1-0.9c0.1-0.3,0.2-0.5,0.4-0.7c0.2-0.2,0.3-0.3,0.5-0.4c0.2-0.1,0.4-0.1,0.7-0.1c0.2,0,0.4,0,0.6,0.1
				c0.2,0.1,0.4,0.2,0.5,0.3l-0.5,0.4c-0.1-0.1-0.2-0.2-0.3-0.2c-0.1,0-0.2-0.1-0.4-0.1c-0.1,0-0.3,0-0.4,0.1
				c-0.1,0.1-0.2,0.1-0.3,0.3c-0.1,0.1-0.2,0.3-0.2,0.5c-0.1,0.2-0.1,0.4-0.1,0.7c0,0.3,0,0.5,0.1,0.7c0.1,0.2,0.1,0.4,0.2,0.5
				s0.2,0.2,0.3,0.3c0.1,0.1,0.2,0.1,0.4,0.1c0,0,0.1,0,0.2,0c0.1,0,0.1,0,0.2,0c0.1,0,0.1,0,0.2-0.1c0.1,0,0.1-0.1,0.1-0.1v-1h-0.7
				v-0.5L17.9,20.1L17.9,20.1z"/>
		</g>
		<circle class="st22" cx="8.8" cy="6.5" r="1.9"/>
		<polygon class="st23" points="3.7,16.5 8.2,16.5 21.3,16.5 21.3,12 17.2,8.1 12.9,12.8 10.6,10.6 		"/>
	</g>
</g>
<g id="mp3" class="st1">
	<g class="st2">
		<path class="st11" d="M15.7,0.6H3.8c-0.3,0-0.6,0.3-0.6,0.8V23c0,0.1,0.3,0.4,0.6,0.4h16.3c0.3,0,0.6-0.3,0.6-0.4V5.9
			c0-0.3,0-0.4-0.1-0.4l-4.7-4.7C15.8,0.6,15.8,0.6,15.7,0.6z"/>
		<polygon class="st12" points="15.9,0.7 15.9,5.5 20.7,5.5 		"/>
		<path class="st19" d="M20.2,23.4H3.8c-0.3,0-0.6-0.3-0.6-0.6v-6.3h17.5v6.3C20.7,23.1,20.5,23.4,20.2,23.4z"/>
		<path class="st15" d="M15.1,6.7c-0.2-0.3-0.5-0.6-0.9-1c-1.6-1.3-1.9-2.6-2-2.7V2.6c0-0.2-0.2-0.4-0.4-0.4c-0.2,0-0.4,0.2-0.4,0.4
			V3v3.4v3.7H9.9c-1.6,0-2.6,0.8-2.6,2.1c0,1.4,0.9,2.3,2.3,2.3c1.4,0,2.6-1.1,2.6-2.6V7.3l0.1,0.1c0.1,0.1,0.4,0.3,0.6,0.5
			c0.9,0.7,2.5,1.9,2.1,3.2c0,0,0,0.1,0,0.1c0,0.2,0.1,0.3,0.3,0.4c0,0,0.1,0,0.1,0c0.2,0,0.3-0.1,0.4-0.3
			C16.5,9.1,15.7,7.5,15.1,6.7z M11.4,12c0,1-0.8,1.7-1.7,1.7c-1,0-1.5-0.5-1.5-1.5c0-1,1-1.3,1.7-1.3h1.5V12z M13.4,7.2
			c-0.2-0.2-0.4-0.3-0.6-0.4l-0.7-0.5V4.8c0.3,0.5,0.8,1,1.5,1.5c0.3,0.3,0.6,0.5,0.8,0.8c0.3,0.4,0.6,1,0.7,1.6
			C14.6,8.1,13.9,7.6,13.4,7.2z"/>
		<g>
			<path class="st14" d="M9.7,18.1h0.7v4.1H9.7v-2.8l-0.9,2.3H8.2l-0.9-2.3v2.8H6.6v-4.1h0.7l1.2,2.8L9.7,18.1z"/>
			<path class="st14" d="M12.1,22.2h-0.7v-4.1h1.2c0.2,0,0.3,0,0.5,0.1c0.2,0.1,0.3,0.1,0.5,0.3c0.1,0.1,0.2,0.2,0.3,0.4
				C14,19,14,19.1,14,19.3c0,0.2,0,0.4-0.1,0.6c-0.1,0.2-0.2,0.3-0.3,0.4c-0.1,0.1-0.3,0.2-0.5,0.3c-0.2,0.1-0.4,0.1-0.6,0.1h-0.5
				L12.1,22.2L12.1,22.2z M12.1,18.6v1.6h0.6c0.1,0,0.2,0,0.2,0c0.1,0,0.2-0.1,0.2-0.1c0.1-0.1,0.1-0.2,0.2-0.3
				c0-0.1,0.1-0.3,0.1-0.4c0-0.1,0-0.1,0-0.2c0-0.1-0.1-0.2-0.1-0.3c-0.1-0.1-0.1-0.1-0.2-0.2c-0.1-0.1-0.2-0.1-0.4-0.1L12.1,18.6
				L12.1,18.6z"/>
			<path class="st14" d="M16.3,20c0.1,0,0.2,0,0.3,0.1s0.2,0.1,0.3,0.2c0.1,0.1,0.1,0.2,0.2,0.3c0.1,0.1,0.1,0.3,0.1,0.4
				c0,0.2,0,0.3-0.1,0.5c-0.1,0.1-0.1,0.2-0.2,0.3c-0.1,0.1-0.2,0.2-0.3,0.2c-0.1,0.1-0.2,0.1-0.3,0.1c-0.1,0-0.2,0-0.3,0.1
				c-0.1,0-0.1,0-0.2,0c-0.3,0-0.6,0-0.7-0.1c-0.2,0-0.3-0.1-0.4-0.1l0.2-0.5c0,0,0.1,0,0.1,0.1c0,0,0.1,0,0.1,0.1
				c0.1,0,0.1,0,0.2,0.1c0.1,0,0.2,0,0.4,0c0.3,0,0.4-0.1,0.6-0.2c0.1-0.1,0.2-0.3,0.2-0.5c0-0.2-0.1-0.4-0.2-0.5
				c-0.1-0.1-0.3-0.2-0.5-0.2h-0.6h0l0-0.5h0.4c0.1,0,0.2,0,0.2,0c0.1,0,0.2,0,0.2-0.1c0.1,0,0.1-0.1,0.2-0.2s0.1-0.2,0.1-0.4
				c0-0.1,0-0.1,0-0.2s0-0.1-0.1-0.2c-0.1-0.1-0.1-0.1-0.2-0.2c-0.1,0-0.2-0.1-0.4-0.1c-0.2,0-0.3,0-0.4,0c-0.1,0-0.2,0.1-0.2,0.1
				l-0.2-0.5c0.1,0,0.2-0.1,0.3-0.1c0.1,0,0.3,0,0.6,0c0.2,0,0.3,0,0.5,0.1c0.2,0,0.3,0.1,0.4,0.2c0.1,0.1,0.2,0.2,0.3,0.4
				S17,19,17,19.2c0,0.1,0,0.2-0.1,0.3c0,0.1-0.1,0.2-0.2,0.2c-0.1,0.1-0.1,0.1-0.2,0.2S16.4,20,16.3,20z"/>
		</g>
	</g>
</g>
<g id="audio" class="st1">
	<g class="st2">
		<path class="st11" d="M15.7,0.6H3.8c-0.3,0-0.6,0.3-0.6,0.8V23c0,0.1,0.3,0.4,0.6,0.4h16.3c0.3,0,0.6-0.3,0.6-0.4V5.9
			c0-0.3,0-0.4-0.1-0.4l-4.7-4.7C15.8,0.6,15.8,0.6,15.7,0.6z"/>
		<polygon class="st12" points="15.9,0.7 15.9,5.5 20.7,5.5 		"/>
		<path class="st24" d="M20.2,23.4H3.8c-0.3,0-0.6-0.3-0.6-0.6v-6.3h17.5v6.3C20.7,23.1,20.5,23.4,20.2,23.4z"/>
		<g>
			<path class="st14" d="M9.7,18.1h0.7v4.1H9.7v-2.8l-0.9,2.3H8.2l-0.9-2.3v2.8H6.6v-4.1h0.7l1.2,2.8L9.7,18.1z"/>
			<path class="st14" d="M12.1,22.2h-0.7v-4.1h1.2c0.2,0,0.3,0,0.5,0.1c0.2,0.1,0.3,0.1,0.5,0.3c0.1,0.1,0.2,0.2,0.3,0.4
				C14,19,14,19.1,14,19.3c0,0.2,0,0.4-0.1,0.6c-0.1,0.2-0.2,0.3-0.3,0.4c-0.1,0.1-0.3,0.2-0.5,0.3c-0.2,0.1-0.4,0.1-0.6,0.1h-0.5
				L12.1,22.2L12.1,22.2z M12.1,18.6v1.6h0.6c0.1,0,0.2,0,0.2,0c0.1,0,0.2-0.1,0.2-0.1c0.1-0.1,0.1-0.2,0.2-0.3
				c0-0.1,0.1-0.3,0.1-0.4c0-0.1,0-0.1,0-0.2c0-0.1-0.1-0.2-0.1-0.3c-0.1-0.1-0.1-0.1-0.2-0.2c-0.1-0.1-0.2-0.1-0.4-0.1L12.1,18.6
				L12.1,18.6z"/>
			<path class="st14" d="M16.3,20c0.1,0,0.2,0,0.3,0.1s0.2,0.1,0.3,0.2c0.1,0.1,0.1,0.2,0.2,0.3c0.1,0.1,0.1,0.3,0.1,0.4
				c0,0.2,0,0.3-0.1,0.5c-0.1,0.1-0.1,0.2-0.2,0.3c-0.1,0.1-0.2,0.2-0.3,0.2c-0.1,0.1-0.2,0.1-0.3,0.1c-0.1,0-0.2,0-0.3,0.1
				c-0.1,0-0.1,0-0.2,0c-0.3,0-0.6,0-0.7-0.1c-0.2,0-0.3-0.1-0.4-0.1l0.2-0.5c0,0,0.1,0,0.1,0.1c0,0,0.1,0,0.1,0.1
				c0.1,0,0.1,0,0.2,0.1c0.1,0,0.2,0,0.4,0c0.3,0,0.4-0.1,0.6-0.2c0.1-0.1,0.2-0.3,0.2-0.5c0-0.2-0.1-0.4-0.2-0.5
				c-0.1-0.1-0.3-0.2-0.5-0.2h-0.6h0l0-0.5h0.4c0.1,0,0.2,0,0.2,0c0.1,0,0.2,0,0.2-0.1c0.1,0,0.1-0.1,0.2-0.2s0.1-0.2,0.1-0.4
				c0-0.1,0-0.1,0-0.2s0-0.1-0.1-0.2c-0.1-0.1-0.1-0.1-0.2-0.2c-0.1,0-0.2-0.1-0.4-0.1c-0.2,0-0.3,0-0.4,0c-0.1,0-0.2,0.1-0.2,0.1
				l-0.2-0.5c0.1,0,0.2-0.1,0.3-0.1c0.1,0,0.3,0,0.6,0c0.2,0,0.3,0,0.5,0.1c0.2,0,0.3,0.1,0.4,0.2c0.1,0.1,0.2,0.2,0.3,0.4
				S17,19,17,19.2c0,0.1,0,0.2-0.1,0.3c0,0.1-0.1,0.2-0.2,0.2c-0.1,0.1-0.1,0.1-0.2,0.2S16.4,20,16.3,20z"/>
		</g>
		<g>
			<path class="st25" d="M11.4,5.3c-0.2-0.1-0.4-0.1-0.6,0c0,0,0,0,0,0L8.3,7.5h-2c-0.1,0-0.2,0.1-0.2,0.2v3.5c0,0,0,0.1,0.1,0.1
				c0,0,0.1,0.1,0.1,0.1l2,0l2.5,2.3c0,0,0,0,0,0c0.1,0.1,0.2,0.1,0.3,0.1c0.1,0,0.2,0,0.3-0.1c0.2-0.1,0.3-0.3,0.3-0.5V5.8
				C11.7,5.6,11.6,5.4,11.4,5.3z M11.4,13.2c0,0.1,0,0.1-0.1,0.2c0,0-0.1,0-0.2,0l-2.5-2.3v-0.8c0-0.1-0.1-0.2-0.2-0.2
				s-0.2,0.1-0.2,0.2V11l-1.7,0V7.9h1.7v0.7c0,0.1,0.1,0.2,0.2,0.2s0.2-0.1,0.2-0.2V7.8l2.5-2.1c0.1,0,0.2,0,0.2,0
				c0.1,0,0.1,0.1,0.1,0.2V13.2z"/>
			<path class="st25" d="M15.8,9.4c0-1.5-1-2.9-2.4-3.4c-0.1,0-0.2,0-0.2,0.1c0,0.1,0,0.2,0.1,0.2c1.3,0.4,2.2,1.7,2.2,3.1
				c0,1.4-0.9,2.6-2.2,3.1c-0.1,0-0.1,0.1-0.1,0.2c0,0.1,0.1,0.1,0.2,0.1c0,0,0,0,0.1,0C14.8,12.3,15.8,11,15.8,9.4z"/>
			<path class="st25" d="M14.4,5.1c-0.1,0-0.2,0-0.2,0.1c0,0.1,0,0.2,0.1,0.2c1.6,0.7,2.7,2.3,2.7,4c0,1.8-1.1,3.4-2.8,4.1
				c-0.1,0-0.1,0.1-0.1,0.2c0,0.1,0.1,0.1,0.2,0.1c0,0,0,0,0.1,0c1.8-0.7,3-2.4,3-4.4C17.3,7.5,16.1,5.8,14.4,5.1z"/>
			<path class="st25" d="M14.1,9.4c0-1.1-0.7-2.1-1.8-2.4c-0.1,0-0.2,0-0.2,0.1c0,0.1,0,0.2,0.1,0.2c0.9,0.3,1.5,1.1,1.5,2
				s-0.6,1.8-1.5,2c-0.1,0-0.2,0.1-0.1,0.2c0,0.1,0.1,0.1,0.2,0.1c0,0,0,0,0.1,0C13.4,11.5,14.1,10.5,14.1,9.4z"/>
		</g>
	</g>
</g>
<g id="html" class="st1">
	<g class="st2">
		<path class="st11" d="M15.7,0.4h-12c-0.3,0-0.6,0.3-0.6,0.8v22c0,0.1,0.3,0.4,0.6,0.4h16.6c0.3,0,0.6-0.3,0.6-0.4V5.8
			c0-0.3,0-0.4-0.1-0.5L16,0.5C15.9,0.4,15.8,0.4,15.7,0.4z"/>
		<polygon class="st12" points="15.9,0.4 15.9,5.4 20.9,5.4 		"/>
		<path class="st26" d="M20.3,23.6H3.7c-0.3,0-0.6-0.3-0.6-0.6v-6.5h17.9V23C20.9,23.4,20.7,23.6,20.3,23.6z"/>
		<g>
			<path class="st14" d="M7.6,18.2v4.2H6.9v-1.9H5.1v1.9H4.4v-4.2h0.7V20h1.8v-1.8H7.6z"/>
			<path class="st14" d="M11.6,18.2v0.5h-1.2v3.7H9.7v-3.7H8.4v-0.5H11.6z"/>
			<path class="st14" d="M15.6,18.2h0.7v4.2h-0.7v-2.9l-0.9,2.3h-0.6l-0.9-2.3v2.9h-0.7v-4.2h0.7l1.2,2.9L15.6,18.2z"/>
			<path class="st14" d="M18,18.2v3.7H20v0.5h-2.6v-4.2H18z"/>
		</g>
		<g>
			<path class="st26" d="M10,7.1C9.8,7,9.6,7,9.4,7.1L6.9,9.6c-0.2,0.2-0.2,0.4,0,0.6l2.5,2.5c0.1,0.1,0.2,0.1,0.3,0.1
				c0.1,0,0.2,0,0.3-0.1c0.2-0.2,0.2-0.4,0-0.6L7.8,9.9L10,7.7C10.2,7.6,10.2,7.3,10,7.1z"/>
			<path class="st26" d="M17.5,9.6L15,7.1c-0.2-0.2-0.4-0.2-0.6,0c-0.2,0.2-0.2,0.4,0,0.6l2.2,2.2l-2.2,2.2c-0.2,0.2-0.2,0.4,0,0.6
				c0.1,0.1,0.2,0.1,0.3,0.1s0.2,0,0.3-0.1l2.5-2.5C17.6,10.1,17.6,9.8,17.5,9.6z"/>
		</g>
	</g>
</g>
<g id="url" class="st1">
	<g class="st2">
		<rect x="7.6" y="6.7" class="st0" width="9.8" height="9.8"/>
		<g>
			<path class="st11" d="M16.2,0.6H4.3C4,0.6,3.7,0.8,3.7,1.3V23c0,0.1,0.3,0.4,0.6,0.4h16.4c0.3,0,0.6-0.3,0.6-0.4V5.9
				c0-0.3,0-0.4-0.1-0.4l-4.8-4.8C16.3,0.6,16.2,0.6,16.2,0.6z"/>
			<polygon class="st12" points="16.4,0.6 16.4,5.5 21.2,5.5 			"/>
			<path class="st27" d="M20.7,23.4H4.3c-0.3,0-0.6-0.3-0.6-0.6v-6.4h17.6v6.4C21.3,23.2,21,23.4,20.7,23.4z"/>
			<text transform="matrix(1 0 0 1 5.1274 22.4893)" class="st14 st28 st29">WWW</text>
		</g>
		<g>
			<g>
				<path class="st27" d="M12.5,4.7c-2.6,0-4.7,2.1-4.7,4.7s2.1,4.7,4.7,4.7s4.7-2.1,4.7-4.7S15.1,4.7,12.5,4.7z M14.1,13.1
					c0.1-0.1,0.1-0.2,0.2-0.4c0.2-0.3,0.3-0.6,0.4-1c0.4-0.1,0.7-0.2,1-0.4c0.1-0.1,0.3-0.1,0.4-0.2C15.7,12,15,12.7,14.1,13.1z
					 M8.9,11.1c0.1,0.1,0.2,0.1,0.4,0.2c0.3,0.2,0.6,0.3,1,0.4c0.1,0.4,0.2,0.7,0.4,1c0.1,0.1,0.1,0.3,0.2,0.4
					C10,12.7,9.3,12,8.9,11.1z M10.8,5.8c-0.1,0.1-0.1,0.2-0.2,0.4c-0.2,0.3-0.3,0.6-0.4,1c-0.4,0.1-0.7,0.2-1,0.4
					C9.1,7.7,9,7.7,8.9,7.8C9.3,6.9,10,6.2,10.8,5.8z M16.4,9.1H15c0-0.3,0-0.7-0.1-1C15.6,8.3,16.1,8.7,16.4,9.1z M14.9,10.8
					c0.1-0.3,0.1-0.7,0.1-1h1.4C16.1,10.2,15.6,10.6,14.9,10.8z M8.6,9.8H10c0,0.3,0,0.7,0.1,1C9.3,10.6,8.8,10.2,8.6,9.8z
					 M10.1,8.1C10,8.4,10,8.7,10,9.1H8.6C8.8,8.7,9.3,8.3,10.1,8.1z M14.2,9.1h-1.4V7.7c0.4,0,0.8,0.1,1.2,0.2
					C14.2,8.2,14.2,8.6,14.2,9.1z M14.1,11.1c-0.4,0.1-0.8,0.1-1.2,0.2V9.8h1.4C14.2,10.3,14.2,10.7,14.1,11.1z M10.7,9.8h1.4v1.4
					c-0.4,0-0.8-0.1-1.2-0.2C10.8,10.7,10.7,10.3,10.7,9.8z M10.9,7.8c0.4-0.1,0.8-0.1,1.2-0.2v1.4h-1.4C10.7,8.6,10.8,8.2,10.9,7.8
					z M12.9,6.9V5.6c0.4,0.2,0.8,0.7,1,1.5C13.5,7,13.2,7,12.9,6.9z M12.1,5.6v1.4c-0.3,0-0.7,0-1,0.1C11.3,6.3,11.7,5.8,12.1,5.6z
					 M12.1,12v1.4c-0.4-0.2-0.8-0.7-1-1.5C11.4,11.9,11.8,12,12.1,12z M12.9,13.3V12c0.3,0,0.7,0,1-0.1
					C13.6,12.6,13.3,13.1,12.9,13.3z M15.7,7.6c-0.3-0.2-0.6-0.3-1-0.4c-0.1-0.4-0.2-0.7-0.4-1c-0.1-0.1-0.1-0.3-0.2-0.4
					c0.9,0.4,1.6,1.1,2,2C16,7.7,15.9,7.7,15.7,7.6z"/>
			</g>
		</g>
	</g>
</g>
<g id="xls" class="st1">
	<g class="st2">
		<path class="st11" d="M15.6,0.7H3.9c-0.3,0-0.6,0.3-0.6,0.8v21.5c0,0.1,0.3,0.4,0.6,0.4h16.2c0.3,0,0.6-0.3,0.6-0.4v-17
			c0-0.3,0-0.4-0.1-0.4l-4.7-4.7C15.8,0.7,15.7,0.7,15.6,0.7z"/>
		<polygon class="st12" points="15.8,0.7 15.8,5.5 20.6,5.5 		"/>
		<path class="st30" d="M20.1,23.3H3.9c-0.3,0-0.6-0.3-0.6-0.6v-6.3h17.4v6.3C20.7,23.1,20.4,23.3,20.1,23.3z"/>
		<g>
			<path class="st14" d="M8.9,20.1l1,2H9.2l-0.6-1.5H8.5l-0.7,1.5H7l1-2L6.9,18h0.8l0.7,1.7h0.1L9.3,18H10L8.9,20.1z"/>
			<path class="st14" d="M11.6,18v3.6h1.9v0.5h-2.6V18H11.6z"/>
			<path class="st14" d="M16.5,21c0,0.1,0,0.3-0.1,0.4s-0.1,0.3-0.3,0.4C16,21.9,15.9,22,15.7,22c-0.2,0.1-0.3,0.1-0.6,0.1
				c-0.1,0-0.2,0-0.3,0c-0.1,0-0.2,0-0.3,0c-0.1,0-0.2-0.1-0.3-0.1c-0.1,0-0.2-0.1-0.2-0.1l0.1-0.5c0.1,0,0.1,0.1,0.2,0.1
				c0.1,0,0.2,0.1,0.2,0.1c0.1,0,0.2,0,0.3,0.1c0.1,0,0.2,0,0.2,0c0.2,0,0.4-0.1,0.5-0.2s0.2-0.3,0.2-0.5c0-0.1,0-0.2-0.1-0.3
				c-0.1-0.1-0.2-0.2-0.3-0.2c-0.1-0.1-0.3-0.1-0.4-0.2c-0.1-0.1-0.3-0.2-0.4-0.3c-0.1-0.1-0.2-0.2-0.3-0.3s-0.1-0.3-0.1-0.5
				c0-0.2,0-0.3,0.1-0.5c0.1-0.1,0.2-0.3,0.3-0.4s0.2-0.2,0.4-0.2C15,18,15.2,18,15.4,18c0.2,0,0.3,0,0.5,0c0.2,0,0.3,0.1,0.4,0.2
				c0,0,0,0.1-0.1,0.2c0,0.1-0.1,0.1-0.1,0.2c0,0,0,0.1-0.1,0.1c0,0,0,0.1,0,0.1c0,0,0,0-0.1,0s-0.1,0-0.1-0.1c-0.1,0-0.1,0-0.2,0
				c-0.1,0-0.2,0-0.3,0c-0.1,0-0.1,0-0.2,0.1c-0.1,0-0.1,0.1-0.2,0.1s-0.1,0.1-0.1,0.2c0,0.1,0,0.1,0,0.2c0,0.1,0,0.3,0.1,0.4
				c0.1,0.1,0.2,0.2,0.3,0.2c0.1,0.1,0.3,0.1,0.4,0.2c0.1,0.1,0.3,0.1,0.4,0.2c0.1,0.1,0.2,0.2,0.3,0.3C16.4,20.6,16.5,20.8,16.5,21
				z"/>
		</g>
		<path class="st15" d="M10.2,7.1V5.5H5.3v1.6V8v0.8v0.8v0.8v0.8V12v0.8v1.6h4h0.8h8.5v-1.6V12v-0.8v-0.8V9.6V8.8V7.1H10.2z
			 M6.1,6.3h3.2v0.8H6.1V6.3z M6.1,8h3.2v0.8H6.1V8z M6.1,9.6h3.2v0.8H6.1V9.6z M6.1,11.2h3.2V12H6.1V11.2z M9.4,13.6H6.1v-0.8h3.2
			V13.6z M17.9,13.6h-7.7v-0.8h7.7V13.6z M17.9,12h-7.7v-0.8h7.7V12z M17.9,10.4h-7.7V9.6h7.7V10.4z M10.2,8.8V8h7.7v0.8H10.2z"/>
	</g>
</g>
<g id="gif" class="st1">
	<g class="st2">
		<path class="st11" d="M15.6,0.8H4C3.6,0.8,3.4,1,3.4,1.5v21.3c0,0.1,0.3,0.4,0.6,0.4H20c0.3,0,0.6-0.3,0.6-0.4V6
			c0-0.3,0-0.4-0.1-0.4l-4.7-4.7C15.8,0.8,15.7,0.8,15.6,0.8z"/>
		<polygon class="st12" points="15.8,0.8 15.8,5.6 20.6,5.6 		"/>
		<path class="st13" d="M20,23.2H4c-0.3,0-0.6-0.3-0.6-0.6v-6.2h17.3v6.2C20.6,23,20.4,23.2,20,23.2z"/>
		<path class="st13" d="M6.7,6.6v7.9h10.7V6.6H6.7z M13.4,11.2l1.4-0.8l1.5,0.8v1.6L13.4,11.2z M16.3,7.6V10l-1.6-0.8l-2.4,1.4
			l-2-1.1l-2.5,1.7V7.6H16.3z M7.7,12.5l2.6-1.7l5.1,2.7H7.7V12.5z"/>
		<text transform="matrix(1 0 0 1 7.688 22.3223)" class="st14 st28 st31">GIF</text>
	</g>
</g>
<g id="file" class="st1">
	<g class="st2">
		<path class="st11" d="M15.6,0.8H4C3.6,0.8,3.4,1,3.4,1.5v21.3c0,0.1,0.3,0.4,0.6,0.4H20c0.3,0,0.6-0.3,0.6-0.4V6
			c0-0.3,0-0.4-0.1-0.4l-4.7-4.7C15.8,0.8,15.7,0.8,15.6,0.8z"/>
		<polygon class="st12" points="15.8,0.8 15.8,5.6 20.6,5.6 		"/>
		<path class="st32" d="M20,23.2H4c-0.3,0-0.6-0.3-0.6-0.6v-6.2h17.3v6.2C20.6,23,20.4,23.2,20,23.2z"/>
		<text transform="matrix(1 0 0 1 6.6885 22.3223)" class="st14 st28 st31">FILE</text>
	</g>
</g>
<g id="wiki" class="st1">
	<g class="st2">
		<path class="st11" d="M15.6,0.7H3.9c-0.3,0-0.6,0.3-0.6,0.8v21.5c0,0.1,0.3,0.4,0.6,0.4h16.2c0.3,0,0.6-0.3,0.6-0.4v-17
			c0-0.3,0-0.4-0.1-0.4l-4.7-4.7C15.8,0.7,15.7,0.7,15.6,0.7z"/>
		<polygon class="st12" points="15.8,0.7 15.8,5.5 20.6,5.5 		"/>
		<path class="st30" d="M20.1,23.3H3.9c-0.3,0-0.6-0.3-0.6-0.6v-6.3h17.4v6.3C20.7,23.1,20.4,23.3,20.1,23.3z"/>
		<g>
			<path class="st14" d="M7.1,22.1l-1.1-4.4h0.6l0.5,2.2c0.1,0.6,0.3,1.1,0.3,1.5h0c0.1-0.4,0.2-1,0.4-1.5l0.6-2.2H9L9.5,20
				c0.1,0.5,0.2,1.1,0.3,1.5h0c0.1-0.5,0.2-1,0.4-1.5l0.6-2.2h0.6l-1.3,4.4H9.5L9,19.8c-0.1-0.6-0.2-1-0.3-1.5h0
				c-0.1,0.4-0.2,0.9-0.3,1.5l-0.6,2.3H7.1z"/>
			<path class="st14" d="M12.5,17.7v4.4h-0.6v-4.4H12.5z"/>
			<path class="st14" d="M13.5,17.7h0.6v2.1h0c0.1-0.2,0.2-0.3,0.3-0.5l1.4-1.7h0.7l-1.6,1.9l1.7,2.6H16L14.5,20l-0.4,0.5v1.7h-0.6
				V17.7z"/>
			<path class="st14" d="M17.6,17.7v4.4h-0.6v-4.4H17.6z"/>
		</g>
	</g>
	<g class="st2">
		<g>
			<g>
				<path class="st33" d="M16.3,9.9c0.3,0,0.6,0.1,0.8,0.4c0.1,0.1,0.3,0.2,0.4,0.2c0.3,0,0.6-0.3,0.6-0.6V6.8
					c0-0.4-0.4-0.8-0.8-0.8h-2.7c-0.1,0-0.2-0.1-0.2-0.2c0-0.1,0-0.1,0.1-0.1c0.4-0.3,0.6-0.8,0.5-1.3c-0.1-0.6-0.6-1.1-1.2-1.2
					c-0.4,0-0.8,0.1-1.1,0.4c-0.3,0.3-0.5,0.7-0.5,1.1c0,0.4,0.2,0.9,0.6,1.1c0,0,0.1,0.1,0.1,0.1c0,0.1-0.1,0.2-0.2,0.2H9.5
					C9.1,6,8.7,6.3,8.7,6.8v3.1c0,0.1-0.1,0.2-0.2,0.2c-0.1,0-0.1,0-0.1-0.1C8,9.6,7.5,9.4,7,9.5c-0.6,0.1-1.1,0.6-1.2,1.2
					c0,0.4,0.1,0.8,0.4,1.1c0.3,0.3,0.7,0.5,1.1,0.5c0.4,0,0.9-0.2,1.1-0.6c0,0,0.1-0.1,0.1-0.1c0.1,0,0.2,0.1,0.2,0.2v2.7
					c0,0.4,0.4,0.8,0.8,0.8h3.1c0.3,0,0.6-0.3,0.6-0.6c0-0.2-0.1-0.3-0.2-0.5c-0.3-0.2-0.4-0.6-0.4-1c0.1-0.5,0.4-0.8,0.9-0.9
					c0.3,0,0.6,0.1,0.8,0.3c0.2,0.2,0.4,0.5,0.4,0.8c0,0.3-0.1,0.6-0.4,0.8c-0.1,0.1-0.2,0.3-0.2,0.4c0,0.3,0.3,0.6,0.6,0.6h2.7
					c0.4,0,0.8-0.4,0.8-0.8v-2.7c0-0.3-0.3-0.6-0.6-0.6c-0.2,0-0.3,0.1-0.5,0.2c-0.2,0.3-0.6,0.4-1,0.4c-0.5-0.1-0.8-0.4-0.9-0.9
					c0-0.3,0.1-0.6,0.3-0.8C15.8,10,16,9.9,16.3,9.9z M15.3,10c-0.3,0.3-0.4,0.7-0.4,1.1c0.1,0.6,0.6,1.2,1.2,1.2
					c0.5,0.1,1-0.1,1.3-0.5c0,0,0.1-0.1,0.1-0.1c0.1,0,0.2,0.1,0.2,0.2v2.7c0,0.2-0.2,0.4-0.4,0.4h-2.7c-0.1,0-0.2-0.1-0.2-0.2
					c0-0.1,0-0.1,0.1-0.1c0.4-0.3,0.6-0.7,0.6-1.1c0-0.4-0.2-0.8-0.5-1.1c-0.3-0.2-0.6-0.4-1-0.4c-0.1,0-0.1,0-0.2,0
					c-0.6,0.1-1.2,0.6-1.2,1.2c-0.1,0.5,0.1,1,0.5,1.3c0,0,0.1,0.1,0.1,0.1c0,0.1-0.1,0.2-0.2,0.2H9.5c-0.2,0-0.4-0.2-0.4-0.4v-2.7
					c0-0.3-0.3-0.6-0.6-0.6c-0.2,0-0.3,0.1-0.4,0.2C7.9,11.8,7.6,12,7.2,12c-0.3,0-0.6-0.1-0.8-0.4c-0.2-0.2-0.3-0.5-0.3-0.8
					c0.1-0.5,0.4-0.8,0.9-0.9c0.4-0.1,0.7,0.1,1,0.4c0.1,0.1,0.3,0.2,0.5,0.2c0.3,0,0.6-0.3,0.6-0.6V6.8c0-0.2,0.2-0.4,0.4-0.4h3.1
					c0.3,0,0.6-0.3,0.6-0.6c0-0.2-0.1-0.3-0.2-0.4c-0.3-0.2-0.4-0.5-0.4-0.8c0-0.3,0.1-0.6,0.4-0.8c0.2-0.2,0.5-0.3,0.8-0.3
					c0.5,0.1,0.8,0.4,0.9,0.9c0.1,0.4-0.1,0.7-0.4,1c-0.1,0.1-0.2,0.3-0.2,0.5c0,0.3,0.3,0.6,0.6,0.6h2.7c0.2,0,0.4,0.2,0.4,0.4v3.1
					c0,0.1-0.1,0.2-0.2,0.2c-0.1,0-0.1,0-0.1-0.1c-0.3-0.4-0.7-0.6-1.1-0.6C15.9,9.5,15.5,9.6,15.3,10z"/>
			</g>
		</g>
		<g>
			<g>
				<path class="st33" d="M14.3,7.8h-0.6c-0.1,0-0.2,0.1-0.2,0.2c0,0.1,0.1,0.2,0.2,0.2h0.1L13,10.3l-0.8-2.1h0.1
					c0.1,0,0.2-0.1,0.2-0.2c0-0.1-0.1-0.2-0.2-0.2h-0.6c-0.1,0-0.2,0.1-0.2,0.2c0,0.1,0.1,0.2,0.2,0.2h0.1l0.2,0.7l-0.5,1.5
					l-0.8-2.1H11c0.1,0,0.2-0.1,0.2-0.2c0-0.1-0.1-0.2-0.2-0.2h-0.6c-0.1,0-0.2,0.1-0.2,0.2c0,0.1,0.1,0.2,0.2,0.2h0.1l0.9,2.5
					c0,0.1,0.2,0.2,0.3,0.2s0.2-0.1,0.3-0.2l0.4-1.2l0.4,1.2c0,0.1,0.2,0.2,0.3,0.2c0.1,0,0.2-0.1,0.3-0.2l0.9-2.5h0.1
					c0.1,0,0.2-0.1,0.2-0.2C14.5,7.9,14.4,7.8,14.3,7.8z"/>
			</g>
		</g>
	</g>
</g>
<g id="quiz" class="st1">
	<g class="st2">
		<path class="st11" d="M16.2,0.6H4.3C4,0.6,3.7,0.8,3.7,1.3V23c0,0.1,0.3,0.4,0.6,0.4h16.4c0.3,0,0.6-0.3,0.6-0.4V5.9
			c0-0.3,0-0.4-0.1-0.4l-4.8-4.8C16.3,0.6,16.2,0.6,16.2,0.6z"/>
		<polygon class="st12" points="16.4,0.6 16.4,5.5 21.2,5.5 		"/>
		<path class="st34" d="M20.7,23.4H4.3c-0.3,0-0.6-0.3-0.6-0.6v-6.4h17.6v6.4C21.3,23.2,21,23.4,20.7,23.4z"/>
		<text transform="matrix(1 0 0 1 5.9959 21.7666)" class="st14 st28 st35">QUIZ</text>
	</g>
	<path image-rendering="auto" color-rendering="auto" shape-rendering="auto" color-interpolation="sRGB" class="st36" d="M11,1.9
		c-0.1,0-0.1,0-0.2,0.1l-0.7,1H7.9C7.7,3,7.6,3.1,7.6,3.3v2.3c0,0.1,0.1,0.2,0.2,0.2h2.3c0.1,0,0.2-0.1,0.2-0.2V3.7L9.9,4.4v0.9H8.1
		V3.5h1.7l-0.6,1L8.9,3.9C8.8,3.8,8.7,3.7,8.6,3.8C8.5,3.8,8.4,4,8.5,4.1c0,0,0,0,0,0L8.9,5C9,5.1,9.1,5.2,9.3,5.1
		c0,0,0.1,0,0.1-0.1l1.8-2.8c0.1-0.1,0-0.2-0.1-0.3C11.1,1.9,11,1.9,11,1.9L11,1.9z M12,3.9c-0.1,0-0.2,0.1-0.2,0.2v0.5
		c0,0.1,0.1,0.2,0.2,0.2h4.1c0.1,0,0.2-0.1,0.2-0.2V4.2c0-0.1-0.1-0.2-0.2-0.2H12z M7.9,6.2c-0.1,0-0.2,0.1-0.2,0.2v2.3
		C7.6,8.9,7.7,9,7.9,9h2.3c0.1,0,0.2-0.1,0.2-0.2V6.5c0-0.1-0.1-0.2-0.2-0.2H7.9z M8.1,6.7h1.8v1.8H8.1V6.7z M12,7.2
		c-0.1,0-0.2,0.1-0.2,0.2v0.5c0,0.1,0.1,0.2,0.2,0.2h4.1c0.1,0,0.2-0.1,0.2-0.2V7.4c0-0.1-0.1-0.2-0.2-0.2C16.1,7.2,12,7.2,12,7.2z
		 M7.9,9.5c-0.1,0-0.2,0.1-0.2,0.2V12c0,0.1,0.1,0.2,0.2,0.2h2.3c0.1,0,0.2-0.1,0.2-0.2V9.7c0-0.1-0.1-0.2-0.2-0.2H7.9z M8.1,9.9
		h1.8v1.8H8.1V9.9z M12,10.4c-0.1,0-0.2,0.1-0.2,0.2v0.5c0,0.1,0.1,0.2,0.2,0.2h4.1c0.1,0,0.2-0.1,0.2-0.2v-0.5
		c0-0.1-0.1-0.2-0.2-0.2H12z M7.9,12.7c-0.1,0-0.2,0.1-0.2,0.2v2.3c0,0.1,0.1,0.2,0.2,0.2h2.3c0.1,0,0.2-0.1,0.2-0.2v-2.3
		c0-0.1-0.1-0.2-0.2-0.2L7.9,12.7L7.9,12.7z M8.1,13.1h1.8V15H8.1V13.1z M12,13.6c-0.1,0-0.2,0.1-0.2,0.2v0.5c0,0.1,0.1,0.2,0.2,0.2
		h4.1c0.1,0,0.2-0.1,0.2-0.2v-0.5c0-0.1-0.1-0.2-0.2-0.2L12,13.6L12,13.6z"/>
</g>
<g id="scorm">
	<g>
		<path class="st11" d="M16.2,0.6H4.3C4,0.6,3.7,0.8,3.7,1.3V23c0,0.1,0.3,0.4,0.6,0.4h16.4c0.3,0,0.6-0.3,0.6-0.4V5.9
			c0-0.3,0-0.4-0.1-0.4l-4.8-4.8C16.3,0.6,16.2,0.6,16.2,0.6z"/>
		<polygon class="st12" points="16.4,0.6 16.4,5.5 21.2,5.5 		"/>
		<path class="st37" d="M20.7,23.4H4.3c-0.3,0-0.6-0.3-0.6-0.6v-6.4h17.6v6.4C21.3,23.2,21,23.4,20.7,23.4z"/>
		<text transform="matrix(1 0 0 1 4.4497 21.4961)" class="st14 st28 st38">SCORM</text>
	</g>
	<g>
		<rect x="7.1" y="10.9" class="st39" width="1.6" height="1.2"/>
		<rect x="9.8" y="9.6" class="st40" width="1.6" height="2.5"/>
		<rect x="12.6" y="8.1" class="st41" width="1.6" height="3.9"/>
		<rect x="15.3" y="2.5" class="st42" width="1.6" height="9.6"/>
		<path class="st43" d="M6.2,6.6h9h0.1v5.4h1.6V6.6H17h0.8v6.5H6.2V6.6z M14.2,12.1V8.1h-1.6v3.9H14.2z M11.4,12.1V9.6H9.8v2.5H11.4
			z M8.7,12.1v-1.2H7.1v1.2H8.7z"/>
		<path class="st44" d="M18.5,6.5v7.4h-13V6.5c0-0.3,0.3-0.6,0.6-0.6h9.2v0.8H6.2v6.5h11.5V6.6h-0.9V5.9h1c0.2,0,0.3,0.1,0.4,0.2
			c0.1,0.1,0.1,0.1,0.1,0.2c0,0,0,0,0,0c0,0,0,0,0,0.1C18.5,6.4,18.5,6.4,18.5,6.5z"/>
		<path class="st45" d="M18.5,13.9h0.9c0,0.7-0.5,1.2-1.2,1.2H5.8c-0.3,0-0.6-0.1-0.9-0.4c-0.2-0.2-0.4-0.5-0.4-0.9h0.9H18.5z"/>
		<g>
			<path class="st46" d="M18.5,6.5v7.4h-6.1l0.4-0.8l2.5-4.8l0.9-1.7l0.7-1.4v0.6h1c0.2,0,0.3,0.1,0.4,0.2c0.1,0.1,0.1,0.1,0.1,0.2
				c0,0,0,0,0,0c0,0,0,0,0,0.1C18.5,6.4,18.5,6.4,18.5,6.5z"/>
			<path class="st46" d="M8.4,5.9v0.6L8.4,6.6L8.1,7.1L7.7,7.8L6.9,9.5l-0.4,0.8l-0.3,0.5l-0.5,1l-0.2,0.4V6.5
				c0-0.3,0.3-0.6,0.6-0.6L8.4,5.9L8.4,5.9z"/>
			<polygon class="st46" points="16.1,2.5 15.4,3.9 15.3,4.2 15.3,2.5 			"/>
		</g>
		<g>
			<path class="st46" d="M19.4,13.9c0,0.4-0.2,0.7-0.4,0.9h-4l0.5-0.9H19.4z"/>
		</g>
	</g>
</g>
<g id="moodle" class="st1">
	<g class="st2">
		<path class="st11" d="M16.2,0.6H4.3C4,0.6,3.7,0.8,3.7,1.3V23c0,0.1,0.3,0.4,0.6,0.4h16.4c0.3,0,0.6-0.3,0.6-0.4V5.9
			c0-0.3,0-0.4-0.1-0.4l-4.8-4.8C16.3,0.6,16.2,0.6,16.2,0.6z"/>
		<polygon class="st12" points="16.4,0.6 16.4,5.5 21.2,5.5 		"/>
		<path class="st47" d="M20.7,23.4H4.3c-0.3,0-0.6-0.3-0.6-0.6v-6.4h17.6v6.4C21.3,23.2,21,23.4,20.7,23.4z"/>
		<text transform="matrix(1 0 0 1 3.7905 21.3154)" class="st14 st28 st48">MOODLE</text>
	</g>
</g>
</svg>
